<svg width="386" height="88" viewBox="0 0 386 88" fill="none" xmlns="http://www.w3.org/2000/svg">
<g clip-path="url(#clip0_2870_76063)">
<path d="M86.1407 41.067C85.6304 41.067 85.2167 41.4576 85.2167 41.9404C85.2167 51.8803 85.2167 69.7829 85.2167 79.7225C85.2167 80.2059 84.8035 80.5965 84.2939 80.5965H29.3202C29.0503 80.5943 28.9038 80.7439 28.9038 80.9979V87.4385C28.9079 87.6761 29.1049 87.7525 29.2955 87.7525L92.0421 88V87.9918C92.5518 87.9918 92.965 87.6002 92.965 87.1178C92.965 74.9254 92.965 54.1328 92.965 41.9404C92.965 41.4576 92.5518 41.067 92.0421 41.067C90.2769 41.067 87.9054 41.067 86.1407 41.067ZM69.7246 41.9404C69.7246 41.4576 69.3108 41.067 68.8012 41.067C67.0359 41.067 64.665 41.067 62.9002 41.067C62.39 41.067 61.9768 41.4576 61.9768 41.9404C61.9768 45.8014 61.9768 54.4284 61.9768 58.289C61.9768 58.3974 61.9558 58.4832 61.8693 58.5651C61.7844 58.6454 61.6979 58.6652 61.5825 58.6669C51.1852 58.6669 37.6673 58.6669 27.27 58.6669C26.5475 58.6669 25.8931 58.7389 25.3152 59.2851L0.557493 82.6958C0.392066 82.852 0.392066 83.0577 0.557493 83.2139L5.4879 87.8807C5.65235 88.0374 5.87103 88.0374 6.03591 87.8807C11.3043 82.8938 23.3477 71.4962 28.6166 66.5082C29.098 66.0886 29.5789 66.0005 30.1129 66.0005H69.3347C69.4445 66.0005 69.5349 65.9758 69.617 65.8983C69.7002 65.8191 69.7246 65.7327 69.7246 65.6287C69.7246 59.5127 69.7246 48.0563 69.7246 41.9404ZM343.572 69.212L345.814 57.4112C353.409 60.6936 359.449 62.3354 363.934 62.3354C368.479 62.3354 370.751 60.4956 370.751 56.8167C370.751 54.779 370.153 53.2645 368.957 52.2741C367.762 51.2838 365.728 50.2795 362.857 49.2605C360.884 48.5815 359.449 48.0718 358.552 47.7325C357.655 47.3933 356.384 46.8686 354.74 46.1614C353.095 45.4549 351.869 44.8315 351.062 44.2939C350.255 43.7563 349.297 43.0203 348.192 42.0866C347.086 41.1522 346.263 40.1896 345.725 39.1998C345.187 38.2094 344.723 37.0202 344.334 35.6336C343.946 34.2476 343.752 32.7613 343.752 31.1763C343.752 25.8557 345.875 21.7946 350.12 18.9926C354.366 16.1917 359.718 14.7902 366.176 14.7902C371.559 14.7902 377.299 15.837 383.399 17.9319L380.797 29.2235C375.714 26.9597 370.871 25.8273 366.266 25.8273C361.482 25.8273 359.09 27.6107 359.09 31.1763C359.09 32.4216 359.643 33.5538 360.75 34.5723C361.856 35.5911 362.978 36.3413 364.113 36.8223C365.249 37.3034 367.074 37.9966 369.586 38.9027C371.559 39.6382 373.113 40.2471 374.25 40.7277C375.386 41.2086 376.806 41.9596 378.51 42.9777C380.214 43.9964 381.531 45.0437 382.457 46.1194C383.384 47.1945 384.206 48.5959 384.924 50.3218C385.641 52.048 386 53.9587 386 56.0533C386 61.2601 384.027 65.4626 380.08 68.6609C376.134 71.858 371.08 73.458 364.921 73.458C356.13 73.458 349.014 72.0423 343.572 69.212ZM293.395 69.212L295.637 57.4112C303.232 60.6936 309.273 62.3354 313.758 62.3354C318.302 62.3354 320.574 60.4956 320.574 56.8167C320.574 54.779 319.976 53.2645 318.781 52.2741C317.585 51.2838 315.551 50.2795 312.681 49.2605C310.707 48.5815 309.272 48.0718 308.375 47.7325C307.478 47.3933 306.208 46.8686 304.563 46.1614C302.919 45.4544 301.692 44.8309 300.886 44.2939C300.078 43.7558 299.121 43.0203 298.015 42.0866C296.909 41.1527 296.086 40.1896 295.548 39.1998C295.01 38.2094 294.546 37.0202 294.159 35.6336C293.77 34.2476 293.575 32.7613 293.575 31.1763C293.575 25.8557 295.698 21.7941 299.943 18.9926C304.189 16.1911 309.542 14.7902 316 14.7902C321.382 14.7902 327.123 15.837 333.223 17.9319L330.621 29.2235C325.538 26.9597 320.694 25.8273 316.089 25.8273C311.306 25.8273 308.914 27.6107 308.914 31.1763C308.914 32.4216 309.468 33.5538 310.573 34.5723C311.679 35.5911 312.801 36.3413 313.937 36.8223C315.072 37.3029 316.897 37.9966 319.408 38.9027C321.382 39.6382 322.937 40.2471 324.073 40.7277C325.209 41.2086 326.629 41.9596 328.334 42.9777C330.038 43.9964 331.354 45.0437 332.281 46.1194C333.207 47.1945 334.03 48.5959 334.747 50.3218C335.465 52.048 335.824 53.9587 335.824 56.0533C335.824 61.2601 333.85 65.4626 329.903 68.6609C325.957 71.8586 320.904 73.458 314.744 73.458C305.953 73.458 298.837 72.0423 293.395 69.212ZM253.773 60.2129C255.238 61.061 257.077 61.4862 259.289 61.4862C261.502 61.4862 263.342 61.0616 264.806 60.2129C266.271 59.3637 267.363 58.0905 268.08 56.3921C268.798 54.6947 269.277 52.9108 269.516 51.0437C269.755 49.1756 269.874 46.8835 269.874 44.1663C269.874 41.9586 269.815 40.0622 269.695 38.4783C269.576 36.8932 269.292 35.2934 268.843 33.6812C268.395 32.068 267.796 30.7513 267.049 29.7327C266.302 28.7145 265.27 27.8928 263.954 27.2705C262.639 26.6481 261.084 26.3366 259.289 26.3366C257.077 26.3366 255.238 26.7756 253.773 27.6527C252.309 28.5301 251.216 29.8464 250.499 31.6009C249.781 33.3549 249.288 35.1954 249.019 37.1193C248.75 39.0436 248.615 41.3927 248.615 44.1663C248.615 46.8835 248.75 49.1756 249.019 51.0437C249.288 52.9108 249.781 54.6947 250.499 56.3921C251.217 58.0899 252.309 59.3643 253.773 60.2129ZM248.212 16.4455C251.411 15.3421 255.134 14.7902 259.379 14.7902C263.626 14.7902 267.348 15.3421 270.547 16.4455C273.747 17.5488 276.288 18.9931 278.172 20.7758C280.055 22.5588 281.58 24.7666 282.747 27.3984C283.912 30.0298 284.69 32.6626 285.079 35.294C285.467 37.9257 285.662 40.8834 285.662 44.1663C285.662 47.3927 285.452 50.3223 285.034 52.9539C284.616 55.5852 283.823 58.2175 282.657 60.8498C281.491 63.481 279.951 65.6898 278.038 67.4718C276.124 69.2555 273.567 70.6986 270.367 71.8019C267.169 72.9058 263.416 73.458 259.11 73.458C254.864 73.458 251.156 72.9058 247.988 71.8019C244.818 70.6986 242.291 69.2555 240.408 67.4718C238.524 65.6893 236.999 63.4816 235.833 60.8498C234.667 58.2175 233.889 55.5852 233.501 52.9539C233.113 50.3223 232.918 47.3927 232.918 44.1663C232.918 40.9405 233.127 37.9962 233.546 35.3365C233.964 32.6764 234.772 30.0298 235.968 27.3984C237.163 24.7666 238.704 22.5588 240.587 20.7758C242.47 18.9931 245.013 17.5488 248.212 16.4455ZM196.645 26.0818V43.3173C196.944 43.3173 197.377 43.3457 197.945 43.4023C198.513 43.4587 199.022 43.502 199.47 43.5298C199.919 43.5579 200.322 43.5722 200.681 43.5722C203.491 43.5722 205.675 42.9632 207.229 41.7468C208.784 40.5304 209.562 38.2512 209.562 34.9121C209.562 28.9123 206.631 25.9122 200.771 25.9122C198.858 25.9122 197.482 25.9687 196.645 26.0818ZM180.499 72.5235V17.0824C186.898 15.837 193.656 15.2148 200.771 15.2148C203.462 15.2148 205.899 15.3566 208.082 15.6392C210.264 15.922 212.462 16.4888 214.675 17.3373C216.887 18.1858 218.726 19.3046 220.191 20.6912C221.656 22.0782 222.852 23.9458 223.779 26.2944C224.706 28.6437 225.169 31.403 225.169 34.5723C225.169 43.2892 221.492 49.1191 214.136 52.0624L228.488 72.5235H211.087L199.157 53.5902C198.14 53.4772 197.303 53.3639 196.645 53.251V72.5235H180.499ZM123.953 43.9969C124.133 38.6197 125.075 33.9777 126.779 30.0728C128.483 26.1671 130.801 23.1385 133.73 20.9877C136.661 18.8374 139.816 17.2664 143.194 16.276C146.573 15.2857 150.266 14.7902 154.272 14.7902C159.296 14.7902 164.798 15.6676 170.777 17.4222L168.445 27.9498C162.943 26.5355 158.608 25.8273 155.439 25.8273C145.452 25.8273 140.459 31.7987 140.459 43.7419C140.459 50.4774 141.64 55.204 144.001 57.9205C146.363 60.637 149.757 61.996 154.183 61.996C155.379 61.996 156.605 61.9108 157.861 61.7402V43.6571H172.751V70.3158C166.531 72.2975 159.833 73.2875 152.658 73.2875C133.582 73.2875 124.014 63.5239 123.953 43.9969ZM7.74762 8.20688C7.74762 23.2386 7.74762 45.97 7.74762 61.0011C7.74146 62.0554 7.65766 62.392 6.91461 63.0696C5.19655 64.696 2.87291 66.8954 1.15486 68.5212C0.346937 69.2863 -0.00407933 68.8924 3.57427e-05 68.123V0.873631C3.57427e-05 0.390662 0.412915 0 0.923322 0H92.6322C92.7104 0 92.8036 0.0481673 92.8574 0.0986717C92.9411 0.178388 92.965 0.263817 92.965 0.371966C92.9739 1.5716 92.9556 4.74935 92.965 5.94897C92.9689 6.48494 92.7703 6.96311 92.3466 7.31907C84.8967 14.3713 77.1423 21.7396 69.6913 28.7915C69.2288 29.2448 68.8405 29.333 68.175 29.333L31.3904 29.3335C31.273 29.3345 31.1702 29.3638 31.0942 29.4357C31.0236 29.503 30.9885 29.579 30.9885 29.6742V46.5618C30.9885 46.6688 30.9629 46.7537 30.88 46.8319C30.7962 46.9108 30.7066 46.9336 30.5928 46.9336H23.6322C23.5206 46.9336 23.43 46.9099 23.3483 46.8319C23.2654 46.7537 23.2404 46.6683 23.2404 46.5618V22.3799C23.2404 22.2725 23.2597 22.1858 23.3483 22.102C23.4357 22.0192 23.5285 21.9997 23.6416 21.9997C35.53 21.9997 53.2674 21.9997 65.1558 21.9997C65.7514 21.9997 66.2944 21.8808 66.778 21.4156C70.9752 17.4429 76.1329 12.323 80.3301 8.3501C80.9596 7.71936 80.9258 7.34052 79.8887 7.3331H8.67091C8.16118 7.3331 7.74762 7.72431 7.74762 8.20688Z" fill="white"/>
</g>
<defs>
<clipPath id="clip0_2870_76063">
<rect width="386" height="88" fill="white"/>
</clipPath>
</defs>
</svg>
