<svg width="261" height="88" viewBox="0 0 261 88" fill="none" xmlns="http://www.w3.org/2000/svg">
<path d="M0.173828 72.6558H15.44V15.3441H0.173828V72.6558Z" fill="white"/>
<path d="M63.003 15.344V36.2458C63.003 39.1114 63.003 42.0612 63.1736 45.4326C60.7004 42.8199 58.3977 40.5443 55.9244 38.1844L31.7031 15.0912H26.3301V72.6556H41.3403V49.2252C41.3403 47.2024 41.1699 45.0111 40.9993 42.6514C42.705 44.5897 44.5813 46.444 46.2018 47.8766L72.5551 72.9084H78.0135V15.344H63.003Z" fill="white"/>
<path d="M108.743 73.9199C121.536 73.9199 131.174 67.0089 131.174 55.6307C131.174 46.0227 124.266 40.6287 113.349 37.3417C108.573 35.8246 103.626 34.1389 103.626 30.9363C103.626 28.5764 106.185 27.0593 110.364 27.0593C114.372 27.0593 118.295 28.155 123.583 31.0206L129.809 19.9796C122.73 15.7656 116.675 14.0799 109.681 14.0799C97.8267 14.0799 88.1041 20.3168 88.1041 31.5262C88.1041 40.123 93.9037 46.4441 104.991 49.7311C111.131 51.5853 115.651 53.2708 115.651 56.4737C115.651 59.4235 112.411 60.7719 107.976 60.7719C102.603 60.7719 97.1445 58.7491 92.539 55.2094L85.8867 66.7559C92.9655 71.6443 100.897 73.9199 108.743 73.9199Z" fill="white"/>
<path d="M169.019 73.9199C187.568 73.9199 200.306 61.2776 200.306 43.9999C200.306 26.5536 187.568 14.0799 169.019 14.0799C150.385 14.0799 137.733 26.5536 137.733 43.9999C137.733 61.2776 150.385 73.9199 169.019 73.9199ZM169.019 60.2663C159.189 60.2663 153.462 53.1866 153.462 43.9999C153.462 34.729 159.104 27.7336 169.019 27.7336C178.85 27.7336 184.492 34.729 184.492 43.9999C184.492 53.1866 178.85 60.2663 169.019 60.2663Z" fill="white"/>
<path d="M245.491 15.344V36.2458C245.491 39.1114 245.491 42.0612 245.663 45.4326C243.182 42.8199 240.875 40.5443 238.396 38.1844L214.12 15.0912H208.733V72.6556H223.779V49.2252C223.779 47.2024 223.608 45.0111 223.436 42.6514C225.146 44.5897 227.027 46.444 228.651 47.8766L255.064 72.9084H260.535V15.344H245.491Z" fill="white"/>
</svg>
