<svg width="515" height="88" viewBox="0 0 515 88" fill="none" xmlns="http://www.w3.org/2000/svg">
<g clip-path="url(#clip0_2880_76041)">
<path d="M104.778 29.2076C107.061 29.0704 109.351 28.9263 111.869 28.7754V40.2608C112 40.3088 112.124 40.35 112.255 40.398C112.586 39.9932 112.945 39.5953 113.248 39.1699C115.476 36.0961 117.656 32.9812 119.953 29.9555C120.36 29.4203 121.222 28.9949 121.905 28.9538C124.091 28.8303 126.291 28.9058 128.912 28.9058C125.353 34.0241 121.967 38.8886 118.545 43.8011C122.477 48.7823 126.353 53.6879 130.519 58.9709C127.491 58.9709 124.877 59.0327 122.263 58.916C121.794 58.8955 121.304 58.1682 120.925 57.6879C118.056 54.1133 115.214 50.5181 111.965 47.0121V54.9847C111.965 59.0258 111.965 59.0327 107.889 59.019C106.854 59.019 105.82 58.916 104.778 58.8612C104.778 48.9744 104.778 39.0876 104.778 29.1939V29.2076Z" fill="white"/>
<path d="M379.667 47.7873H373.059V41.6261H386.847C387.743 48.7273 386.543 54.0926 380.66 57.4065C375.445 60.3431 367.051 60.7342 361.464 55.9108C356.34 51.4854 354.47 44.9331 356.671 38.7719C358.816 32.7547 364.665 28.645 371.314 28.4803C377.887 28.3156 383.46 31.1012 386.309 36.151C384.633 37.2762 382.936 38.422 381.087 39.6707C379.26 36.9949 376.749 35.4511 373.549 35.0189C369.541 34.4769 366.251 35.9794 364.306 39.3345C362.43 42.5729 362.761 46.9846 365.086 49.8662C367.81 53.2419 372.666 54.2985 376.528 52.295C378.26 51.3963 379.273 49.9417 379.674 47.7942L379.667 47.7873Z" fill="white"/>
<path d="M453.228 49.4959C455.697 52.6245 458.076 55.6366 460.711 58.971C457.925 58.971 455.483 59.0122 453.048 58.923C452.655 58.9093 452.234 58.3398 451.91 57.9556C450.269 56.0208 448.53 54.1546 447.068 52.0962C445.937 50.5045 444.592 50.3055 442.737 50.6966V58.8818H435.908V28.748C440.881 28.9264 445.813 28.7824 450.655 29.3724C455.628 29.9762 458.87 33.4685 459.483 37.8252C460.249 43.2523 458.47 46.6554 453.228 49.4959ZM442.819 44.2678C444.764 44.2678 446.496 44.3776 448.206 44.2403C450.641 44.0482 451.931 42.5251 452.041 39.9796C452.152 37.3244 450.951 35.5405 448.537 35.2729C446.675 35.0671 444.778 35.2318 442.819 35.2318V44.2609V44.2678Z" fill="white"/>
<path d="M228.842 59.0328C230.628 54.1752 232.291 49.6537 233.953 45.1323C235.732 40.2815 237.553 35.4376 239.243 30.5525C239.698 29.2283 240.354 28.7686 241.733 28.8784C243.402 29.0088 245.099 28.8167 246.761 28.9607C247.334 29.0088 248.182 29.5096 248.361 30.0036C251.886 39.417 255.335 48.8578 258.797 58.2918C258.852 58.4496 258.859 58.6211 258.921 59.0191C256.569 59.0191 254.273 59.0808 251.983 58.9642C251.569 58.9436 251.031 58.2506 250.831 57.7498C249.334 54.0173 249.362 54.0036 245.361 54.0036C243.506 54.0036 241.657 54.0448 239.802 53.983C238.878 53.9556 238.374 54.1752 238.015 55.1357C236.539 59.0396 236.498 59.0259 232.291 59.0259C231.256 59.0259 230.228 59.0259 228.828 59.0259L228.842 59.0328ZM244.209 38.3947C244.085 38.3947 243.961 38.381 243.83 38.3741C242.816 41.3655 241.795 44.3638 240.761 47.4239H247.265C246.21 44.3021 245.209 41.345 244.209 38.3947Z" fill="white"/>
<path d="M505.585 54.0103C502.185 54.0103 498.826 53.9691 495.48 54.0583C495.053 54.072 494.439 54.6552 494.246 55.1081C492.618 59.0189 492.639 59.0257 488.328 59.0257C487.307 59.0257 486.286 59.0257 485.086 59.0257C485.314 58.271 485.438 57.7839 485.61 57.3105C488.893 48.3636 492.204 39.4237 495.446 30.4563C495.853 29.3242 496.336 28.789 497.625 28.8782C499.412 29.0017 501.219 28.8371 503.005 28.9537C503.536 28.988 504.323 29.4545 504.495 29.9074C508.034 39.3756 511.503 48.8645 514.979 58.3534C515.014 58.4494 514.979 58.5798 514.979 58.9777C512.6 58.9777 510.213 59.012 507.827 58.9297C507.551 58.9228 507.199 58.3259 507.047 57.9417C506.53 56.6724 506.082 55.3688 505.578 53.9966L505.585 54.0103ZM496.874 47.4305H503.392C502.336 44.3019 501.336 41.3448 500.343 38.3945C500.226 38.3877 500.108 38.3739 499.991 38.3671C498.964 41.3585 497.936 44.3499 496.88 47.4305H496.874Z" fill="white"/>
<path d="M162.586 59.0189C160.041 59.0189 157.737 59.0807 155.447 58.9572C155.047 58.9366 154.543 58.1887 154.343 57.681C152.895 54.0172 152.916 54.0103 148.991 54.0103H142.011C141.514 55.3277 140.99 56.5421 140.611 57.7976C140.335 58.7239 139.859 59.0807 138.879 59.0464C136.81 58.9846 134.741 59.0258 132.472 59.0258C132.679 58.3054 132.796 57.8182 132.961 57.3517C136.265 48.35 139.597 39.3551 142.859 30.3397C143.252 29.2488 143.742 28.7959 144.942 28.8783C147.122 29.0292 149.832 28.2676 151.357 29.2899C152.805 30.2642 153.04 33.0292 153.771 35.0258C156.475 42.3534 159.165 49.681 161.855 57.0155C162.068 57.5987 162.275 58.175 162.572 59.0121L162.586 59.0189ZM150.791 47.4718C149.715 44.3019 148.708 41.338 147.701 38.3808C147.577 38.4014 147.446 38.422 147.322 38.4495C146.315 41.4066 145.301 44.3706 144.246 47.4718H150.791Z" fill="white"/>
<path d="M325.281 29.0156H332.323C332.323 29.8801 332.323 30.6623 332.323 31.4513C332.323 36.6794 332.274 41.9076 332.343 47.1426C332.399 51.4582 335.64 54.0311 339.558 53.0088C342.007 52.3707 343.469 50.2232 343.497 46.9985C343.538 41.6537 343.51 36.3089 343.51 30.9642C343.51 30.3467 343.51 29.736 343.51 29.0156H350.359C350.449 29.1597 350.566 29.2489 350.566 29.345C350.587 35.7189 350.808 42.1065 350.553 48.4736C350.201 57.2763 342.221 60.206 336.247 59.4582C329.005 58.5525 325.294 54.2575 325.281 47.0053C325.267 41.6057 325.281 36.1992 325.281 30.7995C325.281 30.2369 325.281 29.6811 325.281 29.0156Z" fill="white"/>
<path d="M422.899 29.0085H429.866C429.893 29.5986 429.942 30.1955 429.942 30.7993C429.942 36.2538 429.859 41.7152 429.962 47.1698C430.155 57.1252 421.679 60.2607 415.533 59.4648C408.339 58.5317 404.601 54.1749 404.594 46.9639C404.594 41.5643 404.594 36.1646 404.594 30.765C404.594 30.2092 404.642 29.6466 404.677 29.0085H411.526C411.567 29.6123 411.643 30.2092 411.643 30.813C411.65 35.9862 411.588 41.1526 411.691 46.3259C411.719 47.7187 412.057 49.1801 412.588 50.4768C413.395 52.4322 415.181 53.2212 417.216 53.2281C419.306 53.2281 421.175 52.542 421.968 50.4356C422.465 49.1183 422.824 47.6775 422.851 46.2847C422.955 41.1732 422.892 36.0617 422.892 30.9502C422.892 30.3396 422.892 29.7221 422.892 29.0223L422.899 29.0085Z" fill="white"/>
<path d="M173.483 50.5182V58.8681H166.627V28.9127C169 28.9127 171.352 28.8372 173.704 28.9333C176.58 29.0499 179.532 28.9607 182.305 29.592C189.457 31.2112 192.74 39.122 188.947 45.3587C186.705 49.0431 182.925 50.1683 178.877 50.4976C177.166 50.6348 175.435 50.5182 173.483 50.5182ZM173.566 44.2952C174.435 44.2952 175.111 44.2952 175.794 44.2952C176.89 44.2883 177.994 44.357 179.084 44.2403C181.38 43.9865 182.608 42.6074 182.815 40.2335C183.029 37.8252 182.056 35.8424 180.056 35.4856C177.959 35.1082 175.773 35.1974 173.566 35.0808V44.3021V44.2952Z" fill="white"/>
<path d="M296.498 52.9332C298.257 51.5953 299.94 50.3123 301.747 48.9469C303.547 51.163 305.713 52.7342 308.617 52.7754C309.803 52.7891 311.086 52.645 312.155 52.1853C313.949 51.4169 314.011 49.7771 312.348 48.7548C311.431 48.1922 310.355 47.8697 309.334 47.4786C306.858 46.5249 304.292 45.7702 301.919 44.6107C298.705 43.0327 297.215 40.2196 297.491 36.6862C297.767 33.1939 299.54 30.4975 302.94 29.386C308.251 27.6502 313.342 28.0138 317.708 31.9452C318.418 32.5833 318.949 33.4203 319.687 34.326C317.956 35.6433 316.369 36.844 314.707 38.1133C313.024 35.7737 310.658 35.0327 307.989 35.115C306.52 35.1562 304.934 35.3894 304.547 37.1184C304.168 38.82 305.52 39.6227 306.823 40.1442C308.479 40.8028 310.238 41.2145 311.928 41.7908C313.128 42.1956 314.314 42.669 315.48 43.163C318.384 44.3843 320.135 46.5455 320.487 49.6673C320.867 53.0292 319.349 55.609 316.666 57.4752C311.127 61.3311 301.575 59.808 297.478 54.4838C297.133 54.0378 296.864 53.537 296.491 52.9538L296.498 52.9332Z" fill="white"/>
<path d="M471.464 35.3689H462.4V29.0293H487.493V35.2866H478.533V58.9092H471.457V35.3621L471.464 35.3689Z" fill="white"/>
<path d="M215.322 35.3689H206.314V29.0293H231.449V35.2797H222.344V58.9229H215.322V35.3689Z" fill="white"/>
<path d="M283.973 52.6451V58.9299H263.025V29.0156H269.909V52.6451H283.973Z" fill="white"/>
<path d="M194.521 29.0085H201.225V58.9365H194.521V29.0085Z" fill="white"/>
<path d="M399.048 29.0293C398.862 33.6605 398.683 38.1476 398.497 42.7171H392.627V29.0293H399.048Z" fill="white"/>
<path d="M88.4661 4.36364V83.6364C88.4661 86.0446 86.5003 88 84.0794 88H66.1117C71.9882 81.7221 82.3757 66.9846 67.567 45.2419C56.5933 29.1252 53.5584 23.4511 59.7109 0H84.0794C86.5003 0 88.4661 1.9554 88.4661 4.36364Z" fill="white"/>
<path d="M55.269 45.0909C68.5878 62.4631 65.2012 76.1441 61.5663 88H33.0042C38.8808 81.7221 49.2683 66.9846 34.4596 45.2419C23.4859 29.1252 20.451 23.4511 26.6035 0H55.0897C55.0897 0 34.5355 18.0515 55.269 45.0909Z" fill="white"/>
<path d="M22.1613 45.0909C35.4801 62.4631 32.0935 76.1441 28.4586 88H4.38674C1.96575 88 0 86.0446 0 83.6364V4.36364C0 1.9554 1.96575 0 4.38674 0H21.982C21.982 0 1.42776 18.0515 22.1613 45.0909Z" fill="white"/>
</g>
<defs>
<clipPath id="clip0_2880_76041">
<rect width="515" height="88" fill="white"/>
</clipPath>
</defs>
</svg>
