<svg width="327" height="89" viewBox="0 0 327 89" fill="none" xmlns="http://www.w3.org/2000/svg">
<g clip-path="url(#clip0_2870_76065)">
<path fill-rule="evenodd" clip-rule="evenodd" d="M91.868 85.3106C117.541 66.487 116.688 27.6854 94.9402 5.56546C94.7695 5.39525 94.531 5.39525 94.3259 5.5319C94.1552 5.66735 94.1218 5.93944 94.2239 6.14321C106.309 23.8797 98.6619 51.8095 76.5044 39.5772C62.5404 31.8974 55.303 18.9184 44.1043 8.86175C36.0467 1.62429 26.9654 -3.33695 19.1138 2.71146C-6.11639 22.1464 -5.63944 60.4734 16.2449 82.5586C16.4159 82.7287 16.6893 82.7287 16.8603 82.5921C17.0301 82.4566 17.0988 82.1846 16.9627 81.9808C4.39819 63.3957 12.7978 36.3828 34.5797 48.4113C40.0418 51.4007 47.962 58.2654 59.3318 71.2444C67.4231 80.486 80.0213 94.0092 91.868 85.3106Z" fill="white"/>
<path d="M81.5233 17.6274C86.9854 22.9614 90.7759 29.9951 92.1065 37.8439C96.1019 34.7862 97.4325 28.908 97.3638 24.1505C97.2618 18.3071 95.2817 12.5991 92.0045 7.73975L81.5233 17.6274ZM55.6102 11.9865C72.407 11.1715 86.1663 23.3702 87.5322 39.6779C86.0639 40.1885 84.4247 40.0183 82.6157 39.407C78.1088 37.9458 73.2946 34.0729 69.779 31.014C65.0673 26.9026 60.7314 22.3501 56.4292 17.7976C54.7563 15.996 53.1182 14.2293 51.4104 12.4625C52.7762 12.2251 54.1757 12.0549 55.6102 11.9865ZM59.6041 75.7285C58.3068 75.9335 56.976 76.069 55.6102 76.1373C38.8134 76.7486 25.0191 64.4145 23.6545 48.1056C24.6434 47.8335 25.7707 47.9007 26.9992 48.1727C30.7558 49.0561 34.852 51.8765 37.8221 54.1864C44.9921 59.7253 51.2394 66.5552 57.3169 73.2486C58.0685 74.0636 58.8188 74.9135 59.6041 75.7285ZM29.5947 70.3946C24.0978 65.0593 20.2738 58.0269 18.9428 50.1781C14.9478 53.2023 13.6169 59.114 13.7193 63.8367C13.8216 69.7149 15.8017 75.4229 19.1139 80.2823L29.5947 70.3946Z" fill="white"/>
<path fill-rule="evenodd" clip-rule="evenodd" d="M311.497 11.783H281.795C273.567 11.783 266.84 18.4763 266.84 26.6655V41.7853C266.84 49.9745 273.567 56.6677 281.795 56.6677H311.497C319.691 56.6677 326.451 49.9745 326.451 41.7853V26.6655C326.451 18.4763 319.691 11.783 311.497 11.783ZM129.662 56.6677V11.783H148.577L170.597 41.3442H174.318V11.783H189.238V56.6677H170.29L148.27 27.1078H144.548V56.6677H129.662ZM222.184 29.7232H257.828V38.7275H222.184V29.7232ZM213.137 47.5951L257.827 47.6971V56.6677H198.252V11.783H257.827V20.7537H213.137V47.5951ZM306.239 20.7537L287.019 20.8556C284.115 20.8556 281.761 23.199 281.761 26.0877V42.4313C281.761 45.3189 284.115 47.6971 287.019 47.6971H306.274C309.176 47.6971 311.531 45.3189 311.531 42.4313V26.0877C311.531 23.199 309.141 20.7537 306.239 20.7537Z" fill="white"/>
<path d="M158.477 66.7922C158.477 66.5201 158.58 66.2827 158.784 66.1125C158.989 65.9087 159.194 65.8069 159.502 65.8069H160.083C160.15 65.8069 160.253 65.8417 160.321 65.9087C160.355 65.9771 160.388 66.0442 160.388 66.1461V75.0833C160.388 75.3206 160.321 75.558 160.116 75.7281C159.911 75.9319 159.707 76.0338 159.433 76.0338H158.477C158.17 76.0338 157.828 75.9319 157.555 75.7617C156.941 75.3553 155.78 74.6074 154.141 73.5202C152.468 72.3983 150.726 71.2775 148.951 70.122C147.177 68.9329 146.017 68.185 145.436 67.8123C145.367 67.7439 145.334 67.7439 145.299 67.7775C145.23 67.8123 145.196 67.8793 145.196 67.9141V75.0833C145.196 75.3206 145.093 75.558 144.924 75.7281C144.719 75.9319 144.479 76.0338 144.206 76.0338H143.592C143.489 76.0338 143.422 76.0003 143.387 75.9319C143.318 75.8983 143.285 75.83 143.285 75.7281V66.7922C143.285 66.5201 143.387 66.2827 143.592 66.1125C143.763 65.9087 144.001 65.8069 144.241 65.8069H145.129C145.504 65.8069 145.811 65.9087 146.119 66.1125L158.238 74.0632C158.306 74.098 158.375 74.098 158.408 74.0632C158.477 74.0297 158.477 73.9961 158.477 73.9277V66.7922ZM131.13 66.7922C131.13 66.5201 131.233 66.2827 131.438 66.1125C131.608 65.9087 131.847 65.8069 132.121 65.8069H132.702C132.804 65.8069 132.871 65.8417 132.94 65.9087C133.009 65.9771 133.042 66.0442 133.042 66.1461V75.0833C133.042 75.3206 132.94 75.558 132.769 75.7281C132.564 75.9319 132.326 76.0338 132.052 76.0338H131.471C131.369 76.0338 131.302 76.0003 131.233 75.9319C131.164 75.8983 131.13 75.83 131.13 75.7281V66.7922Z" fill="white"/>
<path d="M184.356 66.894C184.356 67.1662 184.288 67.37 184.083 67.5737C183.878 67.7439 183.64 67.8458 183.4 67.8458H170.325C170.051 67.8458 169.812 67.9813 169.607 68.2186C169.402 68.4571 169.333 68.7628 169.333 69.0349C169.333 69.3405 169.402 69.5443 169.607 69.7481C169.812 69.9519 170.051 70.0885 170.325 70.0885H181.454C182.308 70.0885 183.026 70.3605 183.64 70.9035C184.22 71.4465 184.527 72.1274 184.527 72.9761C184.527 73.8259 184.22 74.539 183.64 75.1504C183.026 75.7281 182.274 76.0338 181.454 76.0338H167.901C167.798 76.0338 167.729 76.0003 167.662 75.9331C167.627 75.8983 167.594 75.83 167.594 75.7281V74.9813C167.594 74.7093 167.662 74.4707 167.866 74.267C168.036 74.098 168.276 73.9961 168.548 73.9961H181.591C181.864 73.9961 182.103 73.893 182.343 73.6892C182.547 73.4867 182.615 73.2481 182.615 72.9761C182.615 72.6704 182.547 72.4666 182.343 72.2628C182.103 72.0591 181.864 71.9571 181.591 71.9571H170.495C169.607 71.9571 168.891 71.6851 168.31 71.1073C167.696 70.5643 167.422 69.8847 167.422 69.0349C167.422 68.4919 167.559 67.9813 167.832 67.4718C168.105 66.9624 168.481 66.5548 168.959 66.2827C169.402 65.9771 169.949 65.8069 170.495 65.8069H184.049C184.151 65.8069 184.22 65.8417 184.288 65.9087C184.323 65.9771 184.356 66.0454 184.356 66.1461V66.894Z" fill="white"/>
<path d="M206.411 66.7922C206.411 66.5201 206.513 66.2827 206.718 66.1125C206.922 65.9087 207.128 65.8069 207.401 65.8069H207.981C208.084 65.8069 208.186 65.8417 208.254 65.9087C208.288 65.9771 208.322 66.0442 208.322 66.1461V71.1409C208.322 72.5001 207.879 73.6557 206.922 74.6074C205.967 75.558 204.806 76.0338 203.406 76.0338H196.099C194.734 76.0338 193.607 75.558 192.652 74.6074C191.696 73.6557 191.218 72.5001 191.218 71.1409V66.7922C191.218 66.5201 191.286 66.2827 191.491 66.1125C191.696 65.9087 191.901 65.8069 192.174 65.8069H192.789C192.857 65.8069 192.959 65.8417 193.027 65.9087C193.096 65.9771 193.13 66.0442 193.13 66.1461V71.1757C193.13 71.9224 193.403 72.6021 193.949 73.1462C194.495 73.724 195.144 73.9961 195.929 73.9961H203.576C204.362 73.9961 205.045 73.724 205.591 73.1462C206.137 72.6021 206.411 71.9224 206.411 71.1757V66.7922Z" fill="white"/>
<path d="M232.291 75.0831C232.393 75.1514 232.495 75.2868 232.495 75.4571C232.529 75.6273 232.462 75.7291 232.359 75.8646C232.256 75.9664 232.119 76.0348 231.949 76.0348H231.096C230.651 76.0348 230.242 75.8981 229.901 75.6608L225.633 72.3309C225.258 72.0936 224.847 71.9569 224.437 71.9569H217.439C217.336 71.9569 217.303 72.0253 217.303 72.0936V75.0831C217.303 75.3216 217.2 75.5589 216.996 75.7291C216.791 75.9329 216.585 76.0348 216.279 76.0348H215.699C215.596 76.0348 215.527 76.0012 215.458 75.9329C215.425 75.8981 215.392 75.8311 215.392 75.7291V71.04C215.392 70.7679 215.458 70.5306 215.663 70.3603C215.869 70.1566 216.074 70.0883 216.346 70.0883H229.559C229.866 70.0883 230.106 69.9528 230.311 69.749C230.515 69.5441 230.618 69.2732 230.618 69.0011C230.584 68.729 230.481 68.4581 230.276 68.2196C230.037 67.9822 229.799 67.8456 229.525 67.8456H216.346C216.074 67.8456 215.869 67.7437 215.663 67.5735C215.458 67.3698 215.392 67.1671 215.392 66.8938V66.1471C215.392 66.0452 215.425 65.9769 215.458 65.9098C215.527 65.8415 215.596 65.8079 215.699 65.8079H229.423C230.276 65.8079 230.994 66.1471 231.608 66.8268C232.256 67.5064 232.529 68.2879 232.495 69.1713C232.495 69.7143 232.324 70.1566 232.017 70.5977C231.743 71.04 231.369 71.3456 230.891 71.6178C230.413 71.8551 229.901 71.9569 229.321 71.9569H228.466C228.433 71.9569 228.399 71.957 228.364 72.0253C228.364 72.0589 228.364 72.0936 228.399 72.0936L232.291 75.0831Z" fill="white"/>
<path d="M238.128 76.0348C238.025 76.0348 237.957 76.0012 237.923 75.8981C237.854 75.8311 237.89 75.7291 237.923 75.6608L244.683 66.5546C244.853 66.3508 245.127 66.1471 245.434 66.0117C245.741 65.9098 246.049 65.8079 246.356 65.8079C246.56 65.8079 246.766 65.8415 246.971 65.9098C247.176 65.9433 247.38 66.0452 247.585 66.1471C247.756 66.2825 247.927 66.4192 248.029 66.5546L254.789 75.6608C254.858 75.7291 254.858 75.8311 254.822 75.8981C254.789 76.0012 254.72 76.0348 254.584 76.0348H253.32C252.911 76.0348 252.535 75.8646 252.297 75.5254L246.493 67.7101C246.459 67.6766 246.424 67.6418 246.356 67.6418C246.321 67.6418 246.254 67.6766 246.219 67.7101L240.415 75.5254C240.177 75.8646 239.801 76.0348 239.391 76.0348H238.128Z" fill="white"/>
<path d="M275.991 66.7922C275.991 66.5201 276.093 66.2827 276.298 66.1125C276.503 65.9087 276.707 65.8069 277.014 65.8069H277.595C277.664 65.8069 277.766 65.8417 277.834 65.9087C277.869 65.9771 277.902 66.0442 277.902 66.1461V75.0833C277.902 75.3206 277.834 75.558 277.628 75.7281C277.424 75.9319 277.22 76.0338 276.946 76.0338H275.991C275.684 76.0338 275.341 75.9319 275.068 75.7617C274.454 75.3553 273.292 74.6074 271.655 73.5202C269.982 72.3983 268.24 71.2775 266.465 70.122C264.689 68.9329 263.529 68.185 262.948 67.8123C262.881 67.7439 262.846 67.7439 262.812 67.7775C262.744 67.8123 262.709 67.8793 262.709 67.9141V75.0833C262.709 75.3206 262.607 75.558 262.436 75.7281C262.231 75.9319 261.993 76.0338 261.719 76.0338H261.105C261.003 76.0338 260.934 76.0003 260.901 75.9319C260.832 75.8983 260.798 75.83 260.798 75.7281V66.7922C260.798 66.5201 260.901 66.2827 261.105 66.1125C261.277 65.9087 261.515 65.8069 261.754 65.8069H262.642C263.016 65.8069 263.359 65.9087 263.631 66.1125L275.751 74.0632C275.82 74.098 275.889 74.098 275.922 74.0632C275.991 74.0297 275.991 73.9961 275.991 73.9277V66.7922Z" fill="white"/>
<path d="M289.579 67.8468C288.794 67.8468 288.146 68.1189 287.599 68.6619C287.052 69.2396 286.78 69.9192 286.78 70.7008V71.1766C286.78 71.9234 287.052 72.6031 287.599 73.1472C288.146 73.725 288.794 73.997 289.579 73.997H301.017C301.119 73.997 301.255 73.997 301.392 74.0642C301.495 74.1325 301.597 74.2008 301.7 74.3027C301.802 74.3698 301.835 74.4717 301.904 74.5736C301.972 74.7103 301.972 74.8457 301.972 74.9823V75.7291C301.972 75.831 301.938 75.8993 301.87 75.9341C301.835 76.0012 301.733 76.0359 301.631 76.0359H289.751C288.385 76.0359 287.257 75.5601 286.302 74.6083C285.346 73.6567 284.867 72.5011 284.867 71.1431V70.7008C284.867 69.3415 285.346 68.186 286.302 67.2355C287.257 66.2837 288.385 65.8079 289.751 65.8079H301.631C301.733 65.8079 301.835 65.8427 301.87 65.9097C301.938 65.978 301.972 66.0464 301.972 66.1483V66.895C301.972 67.1671 301.87 67.3709 301.7 67.5746C301.495 67.7449 301.255 67.8468 301.017 67.8468H289.579Z" fill="white"/>
<path d="M323.959 67.8468H312.556C311.771 67.8468 311.088 68.1189 310.542 68.6619C310.03 69.2396 309.723 69.9192 309.723 70.7008V71.1766C309.723 71.9234 310.03 72.6031 310.542 73.1472C311.088 73.725 311.771 73.997 312.556 73.997H323.959C324.095 73.997 324.233 73.997 324.335 74.0642C324.471 74.1325 324.573 74.2008 324.676 74.3027C324.745 74.3698 324.812 74.4717 324.88 74.5736C324.915 74.7103 324.949 74.8457 324.949 74.9823V75.7291C324.949 75.831 324.915 75.8993 324.847 75.9341C324.812 76.0012 324.711 76.0359 324.609 76.0359H312.727C311.361 76.0359 310.234 75.5601 309.278 74.6083C308.323 73.6567 307.811 72.5011 307.811 71.1431V70.7008C307.811 69.3415 308.323 68.186 309.278 67.2355C310.234 66.2837 311.361 65.8079 312.727 65.8079H324.609C324.711 65.8079 324.812 65.8427 324.847 65.9097C324.915 65.978 324.949 66.0464 324.949 66.1483V66.895C324.949 67.1671 324.847 67.3709 324.676 67.5746C324.471 67.7449 324.233 67.8468 323.959 67.8468ZM312.556 71.7879C312.317 71.7879 312.078 71.6861 311.908 71.5171C311.703 71.3456 311.634 71.1083 311.634 70.871C311.634 70.5989 311.703 70.3951 311.941 70.1913C312.113 69.9875 312.352 69.9192 312.591 69.9192H322.73C322.798 69.9192 322.9 69.9528 322.935 69.9875C323.003 70.0547 323.037 70.123 323.037 70.2249V70.8026C323.037 71.0748 322.935 71.3121 322.765 71.4823C322.56 71.6861 322.354 71.7879 322.048 71.7879H312.556Z" fill="white"/>
</g>
<defs>
<clipPath id="clip0_2870_76065">
<rect width="327" height="89" fill="white"/>
</clipPath>
</defs>
</svg>
